<?xml version="1.0" encoding="utf-8"?>
<!-- Generator: Adobe Illustrator 26.4.1, SVG Export Plug-In . SVG Version: 6.00 Build 0)  -->
<svg version="1.1"
	 id="svg3551" xmlns:svg="http://www.w3.org/2000/svg" xmlns:ns1="http://sozi.baierouge.fr" xmlns:rdf="http://www.w3.org/1999/02/22-rdf-syntax-ns#" xmlns:cc="http://creativecommons.org/ns#" xmlns:sodipodi="http://sodipodi.sourceforge.net/DTD/sodipodi-0.dtd" xmlns:dc="http://purl.org/dc/elements/1.1/" xmlns:inkscape="http://www.inkscape.org/namespaces/inkscape"
	 xmlns="http://www.w3.org/2000/svg" xmlns:xlink="http://www.w3.org/1999/xlink" x="0px" y="0px" viewBox="0 0 612 612"
	 style="enable-background:new 0 0 612 612;" xml:space="preserve">
<style type="text/css">
	.st0{fill:#FFFFFF;stroke:#FFFFFF;stroke-width:55;stroke-miterlimit:10;}
	.st1{display:none;}
</style>
<sodipodi:namedview  bordercolor="#666666" borderopacity="1.0" id="base" inkscape:current-layer="svg3551" inkscape:cx="305.25953" inkscape:cy="417.84947" inkscape:pageopacity="0.0" inkscape:pageshadow="2" inkscape:window-height="667" inkscape:window-width="640" inkscape:window-x="5" inkscape:window-y="70" inkscape:zoom="0.43415836" pagecolor="#ffffff" showgrid="false">
	</sodipodi:namedview>
<g id="g3561" transform="translate(-.0819 -.58539)">
	<g id="g3561_00000046330744489549719220000001266532553553819271_" transform="translate(-.0819 -.58539)">
		<path id="path3563" d="M80.8,18.5c-41.3,0-64.6,21.4-64.6,65v450.1c0,40.8,20.9,62.2,62.2,62.2h452c41.3,0,62.2-20.3,62.2-62.2
			v-450c0-42.6-20.9-65-63.5-65C529.2,18.5,80.7,18.4,80.8,18.5L80.8,18.5z"/>
	</g>
	<g>
		<g>
			<polygon class="st0" points="511.3,479 487.2,503.2 279.4,295.2 487.2,87.4 512.8,113 329,296.8 			"/>
			<polygon class="st0" points="329.2,326.5 121.2,534.4 95.7,508.7 279.5,309.9 97.2,127.6 121.2,118.7 			"/>
		</g>
		<rect x="33.9" y="47.2" width="537" height="81.7"/>
		<rect x="44.5" y="450.6" width="532.8" height="127"/>
	</g>
</g>
<g id="dCirPu.tif" class="st1">
	
		<image style="display:inline;overflow:visible;enable-background:new    ;" width="170" height="162" id="Layer_0_00000083071967398393433370000011754132095699239554_" xlink:href="E89CAED0A448F9D6.png"  transform="matrix(3.0834 0 0 3.0834 555.7917 525.4429)">
	</image>
</g>
</svg>
