<?xml version="1.0" encoding="utf-8"?>
<!-- Generator: Adobe Illustrator 26.4.1, SVG Export Plug-In . SVG Version: 6.00 Build 0)  -->
<svg version="1.1"
	 id="svg3551" xmlns:svg="http://www.w3.org/2000/svg" xmlns:ns1="http://sozi.baierouge.fr" xmlns:rdf="http://www.w3.org/1999/02/22-rdf-syntax-ns#" xmlns:cc="http://creativecommons.org/ns#" xmlns:sodipodi="http://sodipodi.sourceforge.net/DTD/sodipodi-0.dtd" xmlns:dc="http://purl.org/dc/elements/1.1/" xmlns:inkscape="http://www.inkscape.org/namespaces/inkscape"
	 xmlns="http://www.w3.org/2000/svg" xmlns:xlink="http://www.w3.org/1999/xlink" x="0px" y="0px" viewBox="0 0 612 612"
	 style="enable-background:new 0 0 612 612;" xml:space="preserve">
<style type="text/css">
	.st0{fill:#FFFFFF;}
	.st1{display:none;}
</style>
<sodipodi:namedview  bordercolor="#666666" borderopacity="1.0" id="base" inkscape:current-layer="svg3551" inkscape:cx="305.25953" inkscape:cy="417.84947" inkscape:pageopacity="0.0" inkscape:pageshadow="2" inkscape:window-height="667" inkscape:window-width="640" inkscape:window-x="5" inkscape:window-y="70" inkscape:zoom="0.43415836" pagecolor="#ffffff" showgrid="false">
	</sodipodi:namedview>
<g id="g3561" transform="translate(-.0819 -.58539)">
	<g id="g3561_00000046330744489549719220000001266532553553819271_" transform="translate(-.0819 -.58539)">
		<path id="path3563" d="M82.6,18.5c-41.3,0-64.6,21.4-64.6,65v450.1c0,40.8,20.9,62.2,62.2,62.2h452c41.3,0,62.2-20.3,62.2-62.2
			v-450c0-42.6-20.9-65-63.5-65C531,18.5,82.5,18.4,82.6,18.5L82.6,18.5z"/>
	</g>
	<polygon class="st0" points="497.4,475.7 475.1,498 283.1,305.9 475.1,113.9 498.8,137.5 329,307.3 	"/>
	<polygon class="st0" points="329.1,307.2 137,499.3 113.4,475.6 283.2,305.9 114.8,137.5 137,115.2 	"/>
</g>
<g id="dCirPu.tif" class="st1">
	
		<image style="display:inline;overflow:visible;" width="512" height="512" id="Layer_0_00000083071967398393433370000011754132095699239554_" xlink:href="E89CAED0A448F9D6.png"  transform="matrix(1 0 0 1 561.8843 519.2018)">
	</image>
</g>
</svg>
