<?xml version="1.0" encoding="UTF-8" standalone="no"?>
<!DOCTYPE svg PUBLIC "-//W3C//DTD SVG 1.1//EN" "http://www.w3.org/Graphics/SVG/1.1/DTD/svg11.dtd">
<svg width="100%" height="100%" viewBox="0 0 612 612" version="1.1" xmlns="http://www.w3.org/2000/svg" xmlns:xlink="http://www.w3.org/1999/xlink" xml:space="preserve" xmlns:serif="http://www.serif.com/" style="fill-rule:evenodd;clip-rule:evenodd;stroke-linejoin:round;stroke-miterlimit:2;">
    <g transform="matrix(1,0,0,1,-0.0819,-0.58539)">
        <g transform="matrix(1.05582,0,0,1.05582,-8.10103,-145.183)">
            <path d="M15.9,647.3L15.9,197.7C16.2,196.3 16.6,195 16.8,193.6C17.3,188.3 18.2,183 19.8,177.9C24.2,163.8 32.6,153 46.2,146.7C53.9,143.1 62,141.3 70.5,140.7C71.5,140.6 72.5,140.4 73.5,140.2L477.5,140.2C478.3,140.3 479.2,140.5 480,140.5L514.5,140.5C522.2,140.5 529.8,141.1 537.3,143.1C555.3,147.9 567.4,159 573,176.9C575.4,184.5 576.4,192.3 576.4,200.3C576.4,201.1 576.6,201.8 576.7,202.6L576.7,642.1C576.6,642.9 576.3,643.8 576.4,644.6C576.4,651.4 575.7,658.1 573.8,664.7C569.6,679.8 560.7,690.8 546,696.7C540,699.1 533.8,700.4 527.4,701.1C525.1,701.3 522.9,701.7 520.6,702L72.5,702C71.7,701.9 71,701.6 70.2,701.6C64.4,701 58.6,700.3 53,698.7C38.1,694.3 27.2,685.3 21.3,670.8C18.8,664.8 17.5,658.5 16.8,652C16.6,650.4 16.2,648.8 15.9,647.3ZM449.2,280.8C381.6,348.3 314.3,415.6 246.8,483.1C212,448.2 177.3,413.6 143,379.3C123.3,399 103.7,418.6 84.4,437.9C137.2,490.7 190.3,543.8 243.4,596.9C330.1,510 417.1,422.9 504.2,335.7C486.1,317.6 467.8,299.3 449.2,280.8Z" style="fill-rule:nonzero;"/>
        </g>
        <g transform="matrix(1.05582,0,0,1.05582,-8.10103,-145.183)">
            <path d="M449.2,280.8C467.8,299.3 486.1,317.5 504.2,335.5C417.1,422.8 330.1,509.8 243.4,596.7C190.3,543.6 137.2,490.5 84.4,437.7C103.6,418.5 123.2,398.9 143,379.1C177.3,413.4 212,448.1 246.8,482.9C314.3,415.7 381.7,348.4 449.2,280.8Z" style="fill:white;fill-rule:nonzero;"/>
        </g>
    </g>
</svg>
