<?xml version="1.0" encoding="utf-8"?>
<!-- Generator: Adobe Illustrator 26.4.1, SVG Export Plug-In . SVG Version: 6.00 Build 0)  -->
<svg version="1.1" id="Layer_1" xmlns:serif="http://www.serif.com/"
	 xmlns="http://www.w3.org/2000/svg" xmlns:xlink="http://www.w3.org/1999/xlink" x="0px" y="0px" viewBox="0 0 595.3 841.9"
	 style="enable-background:new 0 0 595.3 841.9;" xml:space="preserve">
<style type="text/css">
	.st0{fill:#FFFFFF;}
	.st1{fill-rule:evenodd;clip-rule:evenodd;}
	.st2{fill-rule:evenodd;clip-rule:evenodd;fill:#FFFFFF;}
</style>
<g transform="matrix(1,0,0,1,-0.0819,-0.58539)">
	<g id="g3561">
		<g id="path3565" transform="matrix(3.58404e-17,-1,1,1.21169e-16,-33.8375,-76.6552)">
			<path class="st0" d="M54,1146.1L54,1146.1l0,84.8h0C54,1202.2,54,1173.2,54,1146.1z M-152.3,1326.9l-36.4,36.4l-1.5,0
				l-175.3-175.3l107.5-107.5l39.7,39.7l-70.3,70.3L-152.3,1326.9z"/>
		</g>
		<g transform="matrix(0.707107,-0.707107,0.707107,0.707107,-48.4664,389.095)">
			<path class="st1" d="M1242.1,706.8v-8.3h8.4L1242.1,706.8z M1242.1,706.8v-8.3h8.4L1242.1,706.8z"/>
		</g>
		<g transform="matrix(1,0,0,1,0.0819,0.58539)">
			<path class="st1" d="M1329.6,10l-5.9-5.9l5.9-5.9L1329.6,10z M1329.6,10l-5.9-5.9l5.9-5.9L1329.6,10z"/>
		</g>
		<g transform="matrix(1,0,0,1,0.0819,0.58539)">
			<path class="st1" d="M1329.6,10l-5.9-5.9l5.9-5.9L1329.6,10z M1329.6,10l-5.9-5.9l5.9-5.9L1329.6,10z"/>
		</g>
		<g transform="matrix(1,0,0,1,0.0819,0.58539)">
			<path class="st1" d="M1329.6,10l-5.9-5.9l5.9-5.9L1329.6,10z M1329.6,10l-5.9-5.9l5.9-5.9L1329.6,10z"/>
		</g>
		<g transform="matrix(1,0,0,1,0.0819,0.58539)">
			<path class="st1" d="M1329.4,111.5l0,1.5l-175.3,175.3l-107.5-107.5l39.7-39.7l70.3,70.3L1293,75L1329.4,111.5z M1329.6,10
				l-5.9-5.9l5.9-5.9L1329.6,10z M1329.6,10l-5.9-5.9l5.9-5.9L1329.6,10z"/>
		</g>
		<g transform="matrix(1,0,0,1,0.0819,0.58539)">
			<path class="st1" d="M1329.6,10l-5.9-5.9l5.9-5.9L1329.6,10z M1329.4,111.5l0,1.5l-175.3,175.3l-107.5-107.5l39.7-39.7l70.3,70.3
				L1293,75L1329.4,111.5z M1329.4,111.5l0,1.5l-175.3,175.3l-107.5-107.5l39.7-39.7l70.3,70.3L1293,75L1329.4,111.5z M1329.6,10
				l-5.9-5.9l5.9-5.9L1329.6,10z"/>
		</g>
		<g transform="matrix(1,0,0,1,0.0819,0.58539)">
			<path class="st1" d="M1329.6,10l-5.9-5.9l5.9-5.9L1329.6,10z M1329.4,111.5l0,1.5l-175.3,175.3l-107.5-107.5l39.7-39.7l70.3,70.3
				L1293,75L1329.4,111.5z M1329.4,111.5l0,1.5l-175.3,175.3l-107.5-107.5l39.7-39.7l70.3,70.3L1293,75L1329.4,111.5z M1329.6,10
				l-5.9-5.9l5.9-5.9L1329.6,10z"/>
		</g>
		<g transform="matrix(1,0,0,1,0.0819,0.58539)">
			<path class="st1" d="M1329.4,111.5l0,1.5l-175.3,175.3l-107.5-107.5l39.7-39.7l70.3,70.3L1293,75L1329.4,111.5z M1329.6,10
				l14.2,14.2l-14.3,14.3L1329.6,10z M1329.6,10l-5.9-5.9l5.9-5.9L1329.6,10z M1329.4,111.5l0,1.5l-175.3,175.3l-107.5-107.5
				l39.7-39.7l70.3,70.3L1293,75L1329.4,111.5z M1329.6,10l14.2,14.2l-14.3,14.3L1329.6,10z M1329.6,10l-5.9-5.9l5.9-5.9L1329.6,10z
				"/>
		</g>
		<g transform="matrix(1,0,0,1,0.0819,0.58539)">
			<path class="st1" d="M1293,75l36.4,36.4l0,1.5l-175.3,175.3l-107.5-107.5l39.7-39.7l70.3,70.3L1293,75z M1329.6,10l-5.9-5.9
				l5.9-5.9L1329.6,10z M1329.6,10l-5.9-5.9l5.9-5.9L1329.6,10z M1329.6,10l14.2,14.2l-14.3,14.3L1329.6,10z M1293,75l36.4,36.4
				l0,1.5l-175.3,175.3l-107.5-107.5l39.7-39.7l70.3,70.3L1293,75z"/>
		</g>
		<g transform="matrix(1,0,0,1,0.0819,0.58539)">
			<path class="st1" d="M1329.6,10l14.2,14.2l-14.3,14.3L1329.6,10z M1293,75l36.4,36.4l0,1.5l-175.3,175.3l-107.5-107.5l39.7-39.7
				l70.3,70.3L1293,75z M1329.6,10l-5.9-5.9l5.9-5.9L1329.6,10z M1329.6,10l14.2,14.2l-14.3,14.3L1329.6,10z M1329.6,10l-5.9-5.9
				l5.9-5.9L1329.6,10z M1197-131.2c28.1,0,56.1,0,82,0c72.4,0,128.9,0.1,128.9,0.1c41.4,0,61.8,21.8,61.8,63.2v437.7
				c0,40.8-20.3,60.5-60.5,60.5H969.6c-40.2,0-60.5-20.8-60.5-60.5V-68c0-1.2,0-2.5,0.1-3.7c1.3-40,23.8-59.6,62.8-59.6
				c0,0,62.5,0,140.3,0C1139.3-131.2,1168.3-131.2,1197-131.2z M1197-131.2c28.1,0,56.1,0,82,0c72.4,0,128.9,0.1,128.9,0.1
				c41.4,0,61.8,21.8,61.8,63.2v437.7c0,40.8-20.3,60.5-60.5,60.5H969.6c-40.2,0-60.5-20.8-60.5-60.5V-68c0-1.2,0-2.5,0.1-3.7
				c1.3-40,23.8-59.6,62.8-59.6c0,0,62.5,0,140.3,0C1139.3-131.2,1168.3-131.2,1197-131.2z"/>
		</g>
		<g transform="matrix(1,0,0,1,0.0819,0.58539)">
			<path class="st1" d="M1329.6,10l-5.9-5.9l5.9-5.9L1329.6,10z"/>
		</g>
		<g transform="matrix(1,0,0,1,0.0819,0.58539)">
			<path class="st1" d="M1329.6,10l14.2,14.2l-14.3,14.3L1329.6,10z M1329.6,10l0-11.8l-5.9,5.9L1329.6,10z"/>
		</g>
		<g transform="matrix(1,0,0,1,0.0819,0.58539)">
			<path class="st1" d="M1329.6,10l14.2,14.2l-14.3,14.3L1329.6,10z M1329.6,10l0-11.8l-5.9,5.9L1329.6,10z"/>
		</g>
		<g transform="matrix(1,0,0,1,0.0819,0.58539)">
			<path class="st1" d="M1197-131.2c28.1,0,56.1,0,82,0c72.4,0,128.9,0.1,128.9,0.1c41.4,0,61.8,21.8,61.8,63.2v437.7
				c0,40.8-20.3,60.5-60.5,60.5H969.6c-40.2,0-60.5-20.8-60.5-60.5V-68c0-1.2,0-2.5,0.1-3.7c1.3-40,23.8-59.6,62.8-59.6
				c0,0,62.5,0,140.3,0C1139.3-131.2,1168.3-131.2,1197-131.2z M1329.6,10l0-11.8l-5.9,5.9L1329.6,10z M1329.6,10l0,28.5l14.3-14.3
				L1329.6,10z"/>
		</g>
		<g transform="matrix(1,0,0,1,0.0819,0.58539)">
			<path class="st1" d="M1197-131.2c28.1,0,56.1,0,82,0c72.4,0,128.9,0.1,128.9,0.1c41.4,0,61.8,21.8,61.8,63.2v437.7
				c0,40.8-20.3,60.5-60.5,60.5H969.6c-40.2,0-60.5-20.8-60.5-60.5V-68c0-1.2,0-2.5,0.1-3.7c1.3-40,23.8-59.6,62.8-59.6
				c0,0,62.5,0,140.3,0C1139.3-131.2,1168.3-131.2,1197-131.2z M1329.6,10l0-11.8l-5.9,5.9L1329.6,10z M1329.6,10l0,28.5l14.3-14.3
				L1329.6,10z"/>
		</g>
		<g transform="matrix(1,0,0,1,0.0819,0.58539)">
			<path class="st1" d="M1197-131.2c28.1,0,56.1,0,82,0c72.4,0,128.9,0.1,128.9,0.1c41.4,0,61.8,21.8,61.8,63.2v437.7
				c0,40.8-20.3,60.5-60.5,60.5H969.6c-40.2,0-60.5-20.8-60.5-60.5V-68c0-1.2,0-2.5,0.1-3.7c1.3-40,23.8-59.6,62.8-59.6
				c0,0,62.5,0,140.3,0C1139.3-131.2,1168.3-131.2,1197-131.2z M1329.6,10l0-11.8l-5.9,5.9L1329.6,10z"/>
		</g>
		<g transform="matrix(1,0,0,1,0.0819,0.58539)">
			<path class="st1" d="M1197-131.2c28.1,0,56.1,0,82,0c72.4,0,128.9,0.1,128.9,0.1c41.4,0,61.8,21.8,61.8,63.2v437.7
				c0,40.8-20.3,60.5-60.5,60.5H969.6c-40.2,0-60.5-20.8-60.5-60.5V-68c0-1.2,0-2.5,0.1-3.7c1.3-40,23.8-59.6,62.8-59.6
				c0,0,62.5,0,140.3,0C1139.3-131.2,1168.3-131.2,1197-131.2z M1329.6,10l0-11.8l-5.9,5.9L1329.6,10z M1329.6,10l0,28.5l14.3-14.3
				L1329.6,10z"/>
		</g>
		<g transform="matrix(1,0,0,1,0.0819,0.58539)">
			<path class="st1" d="M1197-131.2c28.1,0,56.1,0,82,0c72.4,0,128.9,0.1,128.9,0.1c41.4,0,61.8,21.8,61.8,63.2v437.7
				c0,40.8-20.3,60.5-60.5,60.5H969.6c-40.2,0-60.5-20.8-60.5-60.5V-68c0-1.2,0-2.5,0.1-3.7c1.3-40,23.8-59.6,62.8-59.6
				c0,0,62.5,0,140.3,0C1139.3-131.2,1168.3-131.2,1197-131.2z M1329.6,10l0,28.5l14.3-14.3L1329.6,10z M1329.6,10l0-11.8l-5.9,5.9
				L1329.6,10z M1293,75l-136.3,136.3l-70.3-70.3l-39.7,39.7l107.5,107.5L1329.4,113l0-1.5L1293,75z"/>
		</g>
		<g transform="matrix(1,0,0,1,0.0819,0.58539)">
			<path class="st1" d="M1197-131.2c28.1,0,56.1,0,82,0c72.4,0,128.9,0.1,128.9,0.1c41.4,0,61.8,21.8,61.8,63.2v437.7
				c0,40.8-20.3,60.5-60.5,60.5H969.6c-40.2,0-60.5-20.8-60.5-60.5V-68c0-1.2,0-2.5,0.1-3.7c1.3-40,23.8-59.6,62.8-59.6
				c0,0,62.5,0,140.3,0C1139.3-131.2,1168.3-131.2,1197-131.2z M1329.6,10l0-11.8l-5.9,5.9L1329.6,10z M1329.6,10l0,28.5l14.3-14.3
				L1329.6,10z M1293,75l-136.3,136.3l-70.3-70.3l-39.7,39.7l107.5,107.5L1329.4,113l0-1.5L1293,75z"/>
		</g>
		<g transform="matrix(1,0,0,1,0.0819,0.58539)">
			<path class="st1" d="M1197-131.2c28.1,0,56.1,0,82,0c72.4,0,128.9,0.1,128.9,0.1c41.4,0,61.8,21.8,61.8,63.2v437.7
				c0,40.8-20.3,60.5-60.5,60.5H969.6c-40.2,0-60.5-20.8-60.5-60.5V-68c0-1.2,0-2.5,0.1-3.7c1.3-40,23.8-59.6,62.8-59.6
				c0,0,62.5,0,140.3,0C1139.3-131.2,1168.3-131.2,1197-131.2z M1329.6,10l0-11.8l-5.9,5.9L1329.6,10z M1329.6,10l0,28.5l14.3-14.3
				L1329.6,10z M1293,75l-136.3,136.3l-70.3-70.3l-39.7,39.7l107.5,107.5L1329.4,113l0-1.5L1293,75z"/>
		</g>
		<g transform="matrix(1,0,0,1,0.0819,0.58539)">
			<path class="st1" d="M1329.6,10l14.2,14.2l-14.3,14.3L1329.6,10z M1197-131.2c28.1,0,56.1,0,82,0c72.4,0,128.9,0.1,128.9,0.1
				c41.4,0,61.8,21.8,61.8,63.2v437.7c0,40.8-20.3,60.5-60.5,60.5H969.6c-40.2,0-60.5-20.8-60.5-60.5V-68c0-1.2,0-2.5,0.1-3.7
				c1.3-40,23.8-59.6,62.8-59.6c0,0,62.5,0,140.3,0C1139.3-131.2,1168.3-131.2,1197-131.2z M1329.6,10l0-11.8l-5.9,5.9L1329.6,10z"
				/>
		</g>
		<g transform="matrix(1,0,0,1,0.0819,0.58539)">
			<path class="st1" d="M1197-131.2c28.1,0,56.1,0,82,0c72.4,0,128.9,0.1,128.9,0.1c41.4,0,61.8,21.8,61.8,63.2v437.7
				c0,40.8-20.3,60.5-60.5,60.5H969.6c-40.2,0-60.5-20.8-60.5-60.5V-68c0-1.2,0-2.5,0.1-3.7c1.3-40,23.8-59.6,62.8-59.6
				c0,0,62.5,0,140.3,0C1139.3-131.2,1168.3-131.2,1197-131.2z M1329.4,111.5L1293,75l-136.3,136.3l-70.3-70.3l-39.7,39.7
				l107.5,107.5L1329.4,113L1329.4,111.5z M1329.6,10l0-11.8l-5.9,5.9L1329.6,10z"/>
		</g>
		<g transform="matrix(1,0,0,1,0.0819,0.58539)">
			<path class="st1" d="M1329.6,10l14.2,14.2l-14.3,14.3L1329.6,10z M1197-131.2c28.1,0,56.1,0,82,0c72.4,0,128.9,0.1,128.9,0.1
				c41.4,0,61.8,21.8,61.8,63.2v437.7c0,40.8-20.3,60.5-60.5,60.5H969.6c-40.2,0-60.5-20.8-60.5-60.5V-68c0-1.2,0-2.5,0.1-3.7
				c1.3-40,23.8-59.6,62.8-59.6c0,0,62.5,0,140.3,0C1139.3-131.2,1168.3-131.2,1197-131.2z M1329.6,10l0-11.8l-5.9,5.9L1329.6,10z
				 M1329.4,111.5L1293,75l-136.3,136.3l-70.3-70.3l-39.7,39.7l107.5,107.5L1329.4,113L1329.4,111.5z"/>
		</g>
		<g transform="matrix(1,0,0,1,0.0819,0.58539)">
			<path class="st1" d="M1329.6,10l-5.9-5.9l5.9-5.9L1329.6,10z M1197-131.2c28.1,0,56.1,0,82,0c72.4,0,128.9,0.1,128.9,0.1
				c41.4,0,61.8,21.8,61.8,63.2v437.7c0,40.8-20.3,60.5-60.5,60.5H969.6c-40.2,0-60.5-20.8-60.5-60.5V-68c0-1.2,0-2.5,0.1-3.7
				c1.3-40,23.8-59.6,62.8-59.6c0,0,62.5,0,140.3,0C1139.3-131.2,1168.3-131.2,1197-131.2z M1329.4,111.5L1293,75l-136.3,136.3
				l-70.3-70.3l-39.7,39.7l107.5,107.5L1329.4,113L1329.4,111.5z M1329.6,10l0,28.5l14.3-14.3L1329.6,10z"/>
		</g>
		<g transform="matrix(1,0,0,1,0.0819,0.58539)">
			<path class="st1" d="M1197-131.2c28.1,0,56.1,0,82,0c72.4,0,128.9,0.1,128.9,0.1c41.4,0,61.8,21.8,61.8,63.2v437.7
				c0,40.8-20.3,60.5-60.5,60.5H969.6c-40.2,0-60.5-20.8-60.5-60.5V-68c0-1.2,0-2.5,0.1-3.7c1.3-40,23.8-59.6,62.8-59.6
				c0,0,62.5,0,140.3,0C1139.3-131.2,1168.3-131.2,1197-131.2z M1329.4,111.5L1293,75l-136.3,136.3l-70.3-70.3l-39.7,39.7
				l107.5,107.5L1329.4,113L1329.4,111.5z M1329.6,10l0-11.8l-5.9,5.9L1329.6,10z"/>
		</g>
		<g transform="matrix(1,0,0,1,0.0819,0.58539)">
			<path class="st1" d="M1197-131.2c28.1,0,56.1,0,82,0c72.4,0,128.9,0.1,128.9,0.1c41.4,0,61.8,21.8,61.8,63.2v437.7
				c0,40.8-20.3,60.5-60.5,60.5H969.6c-40.2,0-60.5-20.8-60.5-60.5V-68c0-1.2,0-2.5,0.1-3.7c1.3-40,23.8-59.6,62.8-59.6
				c0,0,62.5,0,140.3,0C1139.3-131.2,1168.3-131.2,1197-131.2z M1329.6,10l0-11.8l-5.9,5.9L1329.6,10z M1329.4,111.5L1293,75
				l-136.3,136.3l-70.3-70.3l-39.7,39.7l107.5,107.5L1329.4,113L1329.4,111.5z"/>
		</g>
		<g transform="matrix(1,0,0,1,0.0819,0.58539)">
			<path class="st1" d="M1197-131.2c28.1,0,56.1,0,82,0c72.4,0,128.9,0.1,128.9,0.1c41.4,0,61.8,21.8,61.8,63.2v437.7
				c0,40.8-20.3,60.5-60.5,60.5H969.6c-40.2,0-60.5-20.8-60.5-60.5V-68c0-1.2,0-2.5,0.1-3.7c1.3-40,23.8-59.6,62.8-59.6
				c0,0,62.5,0,140.3,0C1139.3-131.2,1168.3-131.2,1197-131.2z M1329.6,10l0-11.8l-5.9,5.9L1329.6,10z M1329.6,10l0,28.5l14.3-14.3
				L1329.6,10z M1329.4,111.5L1293,75l-136.3,136.3l-70.3-70.3l-39.7,39.7l107.5,107.5L1329.4,113L1329.4,111.5z"/>
		</g>
		<g transform="matrix(1,0,0,1,0.0819,0.58539)">
			<path class="st1" d="M1197-131.2c28.1,0,56.1,0,82,0c72.4,0,128.9,0.1,128.9,0.1c41.4,0,61.8,21.8,61.8,63.2v437.7
				c0,40.8-20.3,60.5-60.5,60.5H969.6c-40.2,0-60.5-20.8-60.5-60.5V-68c0-1.2,0-2.5,0.1-3.7c1.3-40,23.8-59.6,62.8-59.6
				c0,0,62.5,0,140.3,0C1139.3-131.2,1168.3-131.2,1197-131.2z M1329.6,10l0,28.5l14.3-14.3L1329.6,10z M1329.4,111.5L1293,75
				l-136.3,136.3l-70.3-70.3l-39.7,39.7l107.5,107.5L1329.4,113L1329.4,111.5z"/>
		</g>
		<g transform="matrix(1,0,0,1,0.0819,0.58539)">
			<path class="st1" d="M1197-131.2c28.1,0,56.1,0,82,0c72.4,0,128.9,0.1,128.9,0.1c41.4,0,61.8,21.8,61.8,63.2v437.7
				c0,40.8-20.3,60.5-60.5,60.5H969.6c-40.2,0-60.5-20.8-60.5-60.5V-68c0-1.2,0-2.5,0.1-3.7c1.3-40,23.8-59.6,62.8-59.6
				c0,0,62.5,0,140.3,0C1139.3-131.2,1168.3-131.2,1197-131.2z M1329.4,111.5L1293,75l-136.3,136.3l-70.3-70.3l-39.7,39.7
				l107.5,107.5L1329.4,113L1329.4,111.5z M1329.6,10l0-11.8l-5.9,5.9L1329.6,10z"/>
		</g>
		<g transform="matrix(1,0,0,1,0.0819,0.58539)">
			<path class="st1" d="M1197-131.2c28.1,0,56.1,0,82,0c72.4,0,128.9,0.1,128.9,0.1c41.4,0,61.8,21.8,61.8,63.2v437.7
				c0,40.8-20.3,60.5-60.5,60.5H969.6c-40.2,0-60.5-20.8-60.5-60.5V-68c0-1.2,0-2.5,0.1-3.7c1.3-40,23.8-59.6,62.8-59.6
				c0,0,62.5,0,140.3,0C1139.3-131.2,1168.3-131.2,1197-131.2z M1329.4,111.5L1293,75l-136.3,136.3l-70.3-70.3l-39.7,39.7
				l107.5,107.5L1329.4,113L1329.4,111.5z M1329.6,10l0-11.8l-5.9,5.9L1329.6,10z"/>
		</g>
		<g transform="matrix(1,0,0,1,0.0819,0.58539)">
			<path class="st1" d="M1197-131.2c28.1,0,56.1,0,82,0c72.4,0,128.9,0.1,128.9,0.1c41.4,0,61.8,21.8,61.8,63.2v437.7
				c0,40.8-20.3,60.5-60.5,60.5H969.6c-40.2,0-60.5-20.8-60.5-60.5V-68c0-1.2,0-2.5,0.1-3.7c1.3-40,23.8-59.6,62.8-59.6
				c0,0,62.5,0,140.3,0C1139.3-131.2,1168.3-131.2,1197-131.2z M1329.4,111.5L1293,75l-136.3,136.3l-70.3-70.3l-39.7,39.7
				l107.5,107.5L1329.4,113L1329.4,111.5z M1329.6,10l0-11.8l-5.9,5.9L1329.6,10z"/>
		</g>
		<g transform="matrix(1,0,0,1,0.0819,0.58539)">
			<path class="st1" d="M1197-131.2c28.1,0,56.1,0,82,0c72.4,0,128.9,0.1,128.9,0.1c41.4,0,61.8,21.8,61.8,63.2v437.7
				c0,40.8-20.3,60.5-60.5,60.5H969.6c-40.2,0-60.5-20.8-60.5-60.5V-68c0-1.2,0-2.5,0.1-3.7c1.3-40,23.8-59.6,62.8-59.6
				c0,0,62.5,0,140.3,0C1139.3-131.2,1168.3-131.2,1197-131.2z M1329.4,111.5L1293,75l-136.3,136.3l-70.3-70.3l-39.7,39.7
				l107.5,107.5L1329.4,113L1329.4,111.5z M1329.6,10l0-11.8l-5.9,5.9L1329.6,10z"/>
		</g>
		<g transform="matrix(1.48448,0,0,1.48448,-128.814,-178.085)">
			<path class="st2" d="M991,126.7l36.4,36.4l0,1.5L852.1,339.9L744.6,232.4l39.7-39.7l70.3,70.3L991,126.7z M1027.6,61.6l-5.9-5.9
				l5.9-5.9L1027.6,61.6z M1027.6,61.6l-5.9-5.9l5.9-5.9L1027.6,61.6z M1027.6,61.6l14.2,14.2l-14.3,14.3L1027.6,61.6z"/>
		</g>
		<g transform="matrix(1,0,0,1,0.0819,0.58539)">
			<path class="st1" d="M1401.6-70.2c0-0.3,0-0.6,0-0.9c-0.9-1.7-1.6-3.2-2-4.1c-0.5-1.4-0.6-2.4-0.6-3c0-1.6,0.6-2.8,1.2-3.6
				c0.9-1.1,2-1.9,3.4-2.2c0.8-0.2,3.4-0.6,6.5,2.2c0.1,0.1,0.3,0.3,0.5,0.5c0.5-3.7,2-5.4,2.7-5.9c0.8-0.6,1.6-1,2.5-1.2
				c0-0.3,0-0.7,0-1c-0.3,0.1-0.6,0.2-0.8,0.3c-0.3,0.1-0.6,0.1-0.9,0.2c-1,0.4-2,0.6-3,0.6c-2.9,0-5-0.9-6.5-2.1
				c-1.6-1.3-2.7-3.1-3.3-5.4c-0.7-3,0.2-7.4,0.2-10.8c0-3.2,0.9-4.8,1.3-5.4c1.2-1.7,2.7-2.3,4.2-2.5c0.9-0.1,1.9,0,2.9,0.4
				c0.8,0.3,2,1,2.9,2.4c0.1,0.2,0.2,0.4,0.4,0.6c0.2-0.4,0.3-0.8,0.5-1.1c1.6-2.8,3.9-3.3,5.4-3.3c1.4,0,4.9,0.3,6.2,5.2
				c2.3,8.4,1.9,18,2.3,26.7c2.2-0.7,4.2-0.2,6,1.5c3.4,3.2,4.1,7.2,3.1,12c-0.7,3.5-3,7.7-3,12.2v23.9c0,3.3-2,4.6-3.3,5.3
				c-0.5,0.3-3.9,1.6-6.7-1c-1,0.3-2.2,0.5-3.4,0.4c-0.2,0-0.4,0-0.6,0c-2.7,10.1-7.1,1.3-8.7-19.8c-0.8-1.1-1.5-2.3-2.2-3.5
				c-8.4-4.9-16.5-10.3-26.6-12.7c-3.1-0.7-5.1-3.9-4.3-7c0.7-3.1,3.9-5.1,7-4.3C1391-75.5,1396.4-73.1,1401.6-70.2z"/>
		</g>
		<g transform="matrix(1,0,0,1,0.0819,0.58539)">
			<path class="st1" d="M1446-56c0,3.2-2.6,5.8-5.8,5.8c-3.2,0-5.8-2.6-5.8-5.8c0-17.7-16-26.9-31.1-26.9c-3.2,0-5.8-2.6-5.8-5.8
				c0-3.2,2.6-5.8,5.8-5.8C1424.4-94.5,1446-80.8,1446-56z"/>
		</g>
	</g>
</g>
<rect x="1125.5" y="-104.7" class="st1" width="311.1" height="86.9"/>
</svg>
