<?xml version="1.0" encoding="UTF-8" standalone="no"?>
<!DOCTYPE svg PUBLIC "-//W3C//DTD SVG 1.1//EN" "http://www.w3.org/Graphics/SVG/1.1/DTD/svg11.dtd">
<svg width="100%" height="100%" viewBox="0 0 612 612" version="1.1" xmlns="http://www.w3.org/2000/svg" xmlns:xlink="http://www.w3.org/1999/xlink" xml:space="preserve" xmlns:serif="http://www.serif.com/" style="fill-rule:evenodd;clip-rule:evenodd;stroke-linejoin:round;stroke-miterlimit:2;">
    <g transform="matrix(1,0,0,1,-0.0819,-0.58539)">
        <path d="M82.4,17.9C41.1,17.9 17.8,39.3 17.8,82.9L17.8,533C17.8,573.8 38.7,595.2 80,595.2L532,595.2C573.3,595.2 594.2,574.9 594.2,533L594.2,83C594.2,40.4 573.3,18 530.7,18C530.8,17.9 82.3,17.8 82.4,17.9Z" style="fill-rule:nonzero;"/>
        <g transform="matrix(1,0,0,1,614.417,0)">
            <path d="M-345.6,482.1L-525.8,301.9L-345.6,121.7L-226.7,121.7L-363.8,258.8L-94.5,258.8L-94.5,346L-362.9,346L-226.6,482.3L-345.6,482.1Z" style="fill:white;fill-rule:nonzero;"/>
        </g>
    </g>
</svg>
